<?xml version="1.0" encoding="utf-8"?>
<!-- Generator: Adobe Illustrator 22.0.1, SVG Export Plug-In . SVG Version: 6.00 Build 0)  -->
<svg version="1.1" id="Layer_1" xmlns="http://www.w3.org/2000/svg" xmlns:xlink="http://www.w3.org/1999/xlink" x="0px" y="0px"
	 viewBox="0 0 364.2 44.4" style="enable-background:new 0 0 364.2 44.4;" xml:space="preserve">
<style type="text/css">
	.st0{fill:#FFFFFF;}
	.st1{fill:none;stroke:#FFFFFF;stroke-miterlimit:10;}
</style>
<g>
	<path class="st0" d="M89,32H75c-0.2,0-0.3-0.2-0.3-0.3c0,0,0,0,0,0V12.7c0-0.2,0.2-0.3,0.4-0.3h14.7c0.1,0,0.3,0.2,0.3,0.4L89.3,16
		c0,0.2-0.2,0.3-0.3,0.3h-9.4v3.6c0,0.2,0.2,0.3,0.3,0.3H88c0.2,0,0.4,0.2,0.3,0.4l-0.7,3.2c0,0.2-0.2,0.3-0.3,0.3h-7.8l-0.1,3.6
		c0,0.2,0.2,0.3,0.3,0.3c0,0,0,0,0,0h9.8c0.2,0,0.4,0.2,0.3,0.4l-0.7,3.2C89.3,31.9,89.2,32,89,32 M149.7,17.7l-4.1,0.8
		c-0.2,0-0.3-0.1-0.4-0.3c-0.5-1.6-1.9-2.4-3.4-2.4c-1.6,0-2.6,0.9-2.6,2c0,0.8,0.4,1.4,1.6,1.6l4.1,0.9c3.4,0.8,5.4,2.6,5.4,5.7
		c0,4.2-3.7,6.4-8.1,6.4c-4.3,0-7.9-2-8.6-5.6c0-0.2,0.1-0.4,0.3-0.4l4.4-0.8c0.2,0,0.3,0.1,0.4,0.2c0.6,1.8,1.9,2.6,3.8,2.6
		c1.8,0,2.9-0.8,2.9-2c0-0.9-0.4-1.4-1.8-1.7l-4.1-0.9c-2.8-0.6-5.3-2.1-5.3-5.7c0-3.8,3.2-6.2,7.8-6.2c4.1,0,7.2,2,8.1,5.3
		C150,17.5,149.9,17.7,149.7,17.7C149.7,17.7,149.7,17.7,149.7,17.7 M101.7,21.1h-4.2c-0.2,0-0.3-0.2-0.3-0.3v-4.5h4.5
		c1.7,0,2.8,1,2.8,2.4C104.6,20.2,103.5,21.1,101.7,21.1z M104.2,25.1c3.2-0.7,5.2-3,5.2-6.2c0-3.8-2.8-6.4-7-6.4h-9.6
		c-0.2,0-0.4,0.2-0.4,0.4v18.9c0,0.2,0.2,0.4,0.4,0.4h4.2c0.2,0,0.4-0.2,0.4-0.4v-6.2c0-0.1,0.1-0.2,0.1-0.2h1.1
		c0.1,0,0.1,0,0.2,0.1l5.7,6.5c0.1,0.1,0.2,0.1,0.3,0.1h5c0.3,0,0.5-0.4,0.3-0.6C109.9,31.5,104.2,25.1,104.2,25.1z M67.5,12.6
		l-4.9,12.3c-0.1,0.1-0.2,0.2-0.3,0.1c-0.1,0-0.1-0.1-0.1-0.1l-4.9-12.3c-0.1-0.1-0.2-0.2-0.3-0.2h-4.5c-0.2,0-0.4,0.2-0.4,0.4
		c0,0,0,0.1,0,0.1l7.6,18.9c0.1,0.1,0.2,0.2,0.3,0.2h4.8c0.1,0,0.3-0.1,0.3-0.2l7.6-18.9c0.1-0.2,0-0.4-0.2-0.5c0,0-0.1,0-0.1,0
		h-4.5C67.7,12.4,67.5,12.5,67.5,12.6 M127.8,31.8l-4.9-12.3c-0.1-0.1-0.2-0.2-0.3-0.1c-0.1,0-0.1,0.1-0.1,0.1l-4.9,12.3
		c-0.1,0.1-0.2,0.2-0.3,0.2h-4.5c-0.2,0-0.4-0.2-0.4-0.4c0,0,0-0.1,0-0.1l7.6-18.9c0.1-0.1,0.2-0.2,0.3-0.2h4.8
		c0.1,0,0.3,0.1,0.3,0.2l7.6,18.9c0.1,0.2,0,0.4-0.2,0.5c0,0-0.1,0-0.1,0h-4.5C128,32,127.8,31.9,127.8,31.8 M157.4,32h-4.2
		c-0.2,0-0.4-0.2-0.4-0.4V12.7c0-0.2,0.2-0.4,0.4-0.4h4.2c0.2,0,0.4,0.2,0.4,0.4v18.9C157.7,31.9,157.6,32,157.4,32
		C157.4,32,157.4,32,157.4,32 M201.3,12.8v1.3c0,0,0,0,0,0h-0.3c0,0,0,0,0,0v-1.3c0,0,0,0,0,0h-0.5c0,0,0,0,0,0v-0.3c0,0,0,0,0,0
		h1.4c0,0,0,0,0,0v0.3c0,0,0,0,0,0L201.3,12.8C201.3,12.8,201.3,12.8,201.3,12.8 M203.7,14.1V13l-0.5,1.2c0,0,0,0,0,0h-0.3
		c0,0,0,0,0,0l-0.5-1.1v1.1c0,0,0,0,0,0h-0.3c0,0,0,0,0,0v-1.7c0,0,0,0,0,0h0.4c0,0,0,0,0,0l0.5,1.2l0.5-1.2c0,0,0,0,0,0h0.5
		c0,0,0,0,0,0v1.7c0,0,0,0,0,0L203.7,14.1C203.7,14.2,203.7,14.2,203.7,14.1 M177.2,16.3v-3.5c0-0.2-0.2-0.3-0.3-0.3l0,0H160
		c-0.2,0-0.3,0.2-0.3,0.3c0,0,0,0,0,0v3.5c0,0.2,0.2,0.3,0.3,0.3h6v15.1c0,0.2,0.2,0.4,0.4,0.4h4.2c0.2,0,0.4-0.2,0.4-0.4v-15h6
		C177.1,16.6,177.2,16.5,177.2,16.3C177.2,16.3,177.2,16.3,177.2,16.3 M198.5,12.4h-4.6c-0.1,0-0.2,0.1-0.3,0.2l-4.5,8
		c0,0.1-0.1,0.1-0.2,0.1c-0.1,0-0.2-0.1-0.2-0.1l-4.5-8c-0.1-0.1-0.2-0.2-0.3-0.2h-4.6c-0.2,0-0.3,0.2-0.3,0.3c0,0.1,0,0.1,0,0.2
		l7.5,13v5.8c0,0.2,0.2,0.3,0.3,0.3h4.1c0.2,0,0.3-0.2,0.3-0.3v-5.8l7.5-12.9c0.1-0.2,0-0.4-0.1-0.5
		C198.6,12.4,198.6,12.4,198.5,12.4 M36.2,15.4h-1.6c-0.1,0-0.1,0-0.1-0.1c0,0,0,0,0,0l0.9-2c0-0.1,0-0.2-0.1-0.3c0,0-0.1,0-0.1,0
		h-7.7c-0.1,0-0.2,0-0.2,0.1l-5.1,11.2h0l-0.9-2c0-0.1-0.1-0.1-0.2-0.1h-7.7c-0.1,0-0.2,0.1-0.2,0.2c0,0,0,0.1,0,0.1l4.9,10.8
		c0,0.1,0.1,0.1,0.2,0.1l8.1,0v0l5.7-12.8c0-0.1,0.1-0.1,0.2-0.1h1.9c0.1,0,0.2,0,0.2-0.1l0.7-1.6c0-0.1,0-0.2-0.1-0.3
		c0,0-0.1,0-0.1,0h-1.8l0.4-0.9c0-0.1,0.1-0.1,0.2-0.1h1.9c0.1,0,0.2,0,0.2-0.1l0.7-1.6C36.5,15.6,36.4,15.5,36.2,15.4
		C36.3,15.4,36.3,15.4,36.2,15.4L36.2,15.4z M23.2,17.3l0.7-1.6c0-0.1,0-0.2-0.1-0.3c0,0-0.1,0-0.1,0h-5.4c-0.1,0-0.2,0-0.2-0.1
		l-1-2.2c0-0.1-0.1-0.1-0.2-0.1H9.2C9.1,12.9,9,13,9,13.1c0,0,0,0.1,0,0.1l0.9,2c0,0.1,0,0.1-0.1,0.1c0,0,0,0,0,0H8.2
		c-0.1,0-0.2,0.1-0.2,0.2c0,0,0,0.1,0,0.1l0.7,1.6c0,0.1,0.1,0.1,0.2,0.1H23C23.1,17.4,23.2,17.4,23.2,17.3z M21.8,20.4l0.7-1.6
		c0-0.1,0-0.2-0.1-0.3c0,0-0.1,0-0.1,0H9.6c-0.1,0-0.2,0.1-0.2,0.2c0,0,0,0.1,0,0.1l0.7,1.6c0,0.1,0.1,0.1,0.2,0.1h11.3
		C21.7,20.5,21.8,20.5,21.8,20.4z"/>
</g>
<g>
	<path class="st0" d="M324.2,12.4V32H320v-1.3c-0.9,1.1-2.3,1.7-4.2,1.7c-3.7,0-6.7-3.2-6.7-7.4s3-7.4,6.7-7.4
		c1.9,0,3.2,0.6,4.2,1.7v-6.9H324.2z M320,25c0-2.1-1.4-3.4-3.3-3.4c-1.9,0-3.3,1.3-3.3,3.4s1.4,3.4,3.3,3.4S320,27.1,320,25z
		 M340.7,18v14h-4.2v-1.3c-0.9,1.1-2.3,1.7-4.2,1.7c-3.7,0-6.7-3.2-6.7-7.4s3-7.4,6.7-7.4c1.9,0,3.2,0.6,4.2,1.7V18L340.7,18z
		 M336.5,25c0-2.1-1.4-3.4-3.3-3.4s-3.3,1.3-3.3,3.4s1.4,3.4,3.3,3.4S336.5,27.1,336.5,25z M357.2,12.4V32H353v-1.3
		c-0.9,1.1-2.3,1.7-4.2,1.7c-3.7,0-6.7-3.2-6.7-7.4s3-7.4,6.7-7.4c1.9,0,3.2,0.6,4.2,1.7v-6.9H357.2z M353,25c0-2.1-1.4-3.4-3.3-3.4
		c-1.9,0-3.3,1.3-3.3,3.4s1.4,3.4,3.3,3.4C351.6,28.4,353,27.1,353,25z M359.2,14.2c0-1.4,1.2-2.5,2.6-2.4c1.3,0,2.4,1.1,2.4,2.4
		c0,1.4-1.1,2.5-2.4,2.6c-1.4,0-2.5-1.1-2.6-2.4C359.2,14.3,359.2,14.3,359.2,14.2z M359.6,18h4.2v14h-4.2L359.6,18z M286.9,24.3
		c1.3,0,2.4-1.1,2.4-2.4c0-1.3-1.1-2.4-2.4-2.4l0,0h-13.5c-1.3,0-2.4,1.1-2.4,2.4c0,1.3,1.1,2.4,2.4,2.4H286.9z"/>
	<path class="st0" d="M288.3,10.1h-7.3c-1.3,0-2.4,1.1-2.4,2.4s1.1,2.4,2.4,2.4h7.2c3.9,0,7,3.2,7,7s-3.2,7-7,7l0,0h-7.2
		c-1.3,0-2.4,1.1-2.4,2.4c0,1.3,1.1,2.4,2.4,2.4c0,0,0,0,0,0h7.3c6.5-0.1,11.7-5.4,11.6-12C299.9,15.4,294.7,10.2,288.3,10.1z
		 M272.4,14.9c1.3,0,2.4-1.1,2.4-2.4s-1.1-2.4-2.4-2.4l0,0h-6.8c-1.3,0-2.4,1.1-2.4,2.4s1.1,2.4,2.4,2.4
		C265.6,14.9,272.4,14.9,272.4,14.9z"/>
</g>
<line class="st1" x1="224.3" y1="14.2" x2="241.7" y2="31.6"/>
<line class="st1" x1="241.7" y1="14.2" x2="224.3" y2="31.6"/>
<path class="st0" d="M22.2,0L22.2,0C10,0,0,10,0,22.2s10,22.2,22.2,22.2s22.2-10,22.2-22.2C44.5,10,34.5,0,22.2,0z M22.2,42.2
	c-11,0-19.9-8.9-19.9-19.9c0-11,8.9-19.9,19.9-19.9c11,0,19.9,8.9,19.9,19.9C42.1,33.3,33.2,42.2,22.2,42.2z"/>
</svg>
